<?xml version="1.0" standalone="no"?>
<svg viewBox="0 0 200 200" xmlns="http://www.w3.org/2000/svg">
  <path fill="#0F62FE" d="M32.7,-57.9C36.6,-48.3,30.2,-29.6,34.7,-16.7C39.2,-3.9,54.6,3.1,54.9,8.6C55.2,14.1,40.4,18.1,30.2,21.3C19.9,24.5,14.2,26.8,6,36.8C-2.3,46.7,-13.2,64.3,-24.6,68.1C-36,71.9,-48,61.9,-55.5,49.9C-62.9,38,-65.8,23.9,-68.1,9.6C-70.5,-4.7,-72.2,-19.2,-64.7,-27C-57.1,-34.7,-40.3,-35.6,-28,-41.5C-15.6,-47.3,-7.8,-58.1,3.3,-63.2C14.3,-68.2,28.7,-67.6,32.7,-57.9Z" transform="translate(100 100)" />
</svg>
